PathFileType	4	(X/Y/Z)	Run_400 02
DataRate	CameraRate	NumFrames	NumMarkers	Units	OrigDataRate	OrigDataStartFrame	OrigNumFrames
100	100	6	45	mm	100	1	137
Frame#	Time	LASI			RASI			LPSI			RPSI			RTH1			RTH2			RTH3			LTH1			LTH2			LTH3			RTB1			RTB2			RTB3			RLMAL			RMMAL			LTB1			LTB2			LTB3			RCAL			RTOE			RMT5			LCAL			LTOE			LMT5			LACR			RACR			CLAV			C7			LPSH			RUA1			RUA2			RUA3			RLEL			RMEL			LUA1			LUA2			LUA3			LLEL			LMEL			RFAsuperior			RFAradius			RFAulna			LFAsuperior			LFAradius			LFAulna			
		X1	Y1	Z1	X2	Y2	Z2	X3	Y3	Z3	X4	Y4	Z4	X5	Y5	Z5	X6	Y6	Z6	X7	Y7	Z7	X8	Y8	Z8	X9	Y9	Z9	X10	Y10	Z10	X11	Y11	Z11	X12	Y12	Z12	X13	Y13	Z13	X14	Y14	Z14	X15	Y15	Z15	X16	Y16	Z16	X17	Y17	Z17	X18	Y18	Z18	X19	Y19	Z19	X20	Y20	Z20	X21	Y21	Z21	X22	Y22	Z22	X23	Y23	Z23	X24	Y24	Z24	X25	Y25	Z25	X26	Y26	Z26	X27	Y27	Z27	X28	Y28	Z28	X29	Y29	Z29	X30	Y30	Z30	X31	Y31	Z31	X32	Y32	Z32	X33	Y33	Z33	X34	Y34	Z34	X35	Y35	Z35	X36	Y36	Z36	X37	Y37	Z37	X38	Y38	Z38	X39	Y39	Z39	X40	Y40	Z40	X41	Y41	Z41	X42	Y42	Z42	X43	Y43	Z43	X44	Y44	Z44	X45	Y45	Z45	

1	0.11	952.348399	1056.528838	-444.924432	952.438005	1074.450762	-211.745601	790.212709	1097.890565	-377.278062	788.894994	1099.545365	-287.604026	926.608023	813.971754	-162.967862	1019.946544	776.366821	-185.665436	984.831535	658.757608	-199.313739	815.647005	837.228109	-481.627577	867.820331	717.328655	-474.054282	799.078366	632.549984	-454.633594	1094.417752	432.708538	-254.337312	1059.494876	367.264508	-219.315165	1103.955352	250.685355	-275.627918	1081.268487	126.089734	-274.293276	1102.885212	164.507908	-348.740867	685.468976	466.710278	-420.132169	573.344272	545.067962	-427.909538	493.715056	468.652796	-392.684345	1027.258907	112.982255	-345.38359	1249.44823	100.597982	-326.881766	1182.745664	55.689301	-263.56233	357.56482	554.952029	-329.309008	312.661226	337.143767	-359.553972	289.493006	401.979598	-417.910764	934.07877	1584.849544	-460.832071	877.481802	1538.121823	-159.653638	970.128882	1488.874868	-280.873383	865.173307	1578.713125	-315.480089	857.370721	1546.796952	-492.2295	773.206727	1415.608114	-99.467384	696.503741	1390.794177	-150.968474	669.071176	1338.843981	-114.156269	648.9939900000001	1272.940981	-87.70038099999999	655.659618	1261.031166	-178.194409	880.364998	1467.904116	-558.181119	818.1532560000001	1389.796992	-564.8689859999999	853.577581	1348.284761	-617.091689	865.558653	1269.584229	-639.83789	807.148969	1253.74122	-569.846066	696.5319050000001	1209.447182	-88.432125	897.458075	1209.390446	-92.153785	877.2035080000001	1145.152719	-86.97905299999999	923.691916	1227.364232	-572.750145	1025.824049	1308.390687	-451.671495	1045.766854	1243.212363	-464.432113	
2	0.12	950.258001	1048.296707	-443.739768	950.6851380000001	1066.409678	-210.522473	788.241734	1089.282046	-376.619497	786.376622	1090.764296	-287.267349	924.349866	805.936108	-165.183414	1017.390642	769.918627	-191.871106	981.202935	650.72262	-201.65882	820.518317	826.705627	-482.496117	878.076873	708.8397	-477.014302	813.923138	621.416002	-457.632111	1081.885389	420.395403	-260.058267	1044.963227	356.716183	-223.731374	1079.910184	237.946526	-281.548299	1050.016514	117.041154	-278.930355	1069.628685	152.396307	-355.027023	704.6426760000001	461.022689	-424.35456	596.262355	544.53815	-432.021569	513.538964	471.931111	-397.019645	992.97924	104.523182	-350.061499	1215.962506	84.465667	-335.642623	1147.39496	50.350464	-266.004242	378.910879	564.018555	-332.72164	332.027925	347.318695	-367.294066	310.539226	413.494831	-424.888482	933.6106160000001	1576.119165	-461.961535	879.012635	1528.519433	-159.229916	970.546569	1480.196097	-281.815493	865.7775	1570.026919	-315.61646	856.10609	1538.118785	-491.908935	777.77501	1403.326651	-97.27627	700.208557	1377.141515	-146.788973	674.886042	1324.406535	-109.808247	656.141132	1258.48526	-83.05831999999999	662.011532	1247.233026	-173.66462	876.736475	1461.013642	-559.334868	813.723788	1384.133357	-566.045081	847.675041	1342.784304	-619.648053	857.605558	1264.268696	-643.847726	800.461981	1248.515406	-573.124115	704.671031	1195.412129	-85.070047	905.5683739999999	1197.466589	-91.563732	886.33734	1133.016456	-86.43692799999999	915.670136	1216.980401	-580.055979	1024.304252	1288.839809	-458.988612	1041.33237	1223.675839	-474.850511	
3	0.13	948.030986	1039.436645	-442.537267	949.051608	1057.795713	-209.573271	785.66336	1080.420639	-375.896134	783.541837	1081.823148	-286.980097	920.886848	797.553578	-165.059141	1013.643415	760.310753	-197.485129	977.347834	640.8885299999999	-204.139252	825.615778	815.659637	-483.510101	889.118615	700.397519	-480.171079	829.925718	610.2906860000001	-460.859935	1068.179142	408.509139	-268.434442	1029.880392	346.206061	-231.185638	1053.541125	226.330694	-291.284146	1015.301354	111.537437	-286.503636	1032.781417	142.499752	-364.212251	725.866749	455.114233	-428.743798	620.767886	542.6092200000001	-436.345451	535.621801	473.361813	-401.687467	955.673876	98.27234199999999	-356.796939	1180.010953	74.02663699999999	-341.771026	1109.416442	50.601711	-268.292253	402.11042	570.292245	-336.82703	354.519828	354.410018	-374.769149	334.47225	421.504162	-431.878145	932.832147	1566.461444	-463.067284	880.898538	1518.496752	-158.851349	971.23995	1470.771025	-282.796873	866.3672350000001	1560.490142	-315.643271	854.5655819999999	1528.324751	-491.661948	783.112721	1390.127027	-94.853202	704.807428	1362.301139	-142.22975	681.676567	1309.059443	-104.718948	664.516063	1243.168327	-77.854589	669.288862	1232.277572	-168.549028	872.747124	1452.964159	-560.466774	808.937499	1377.320936	-566.99102	841.151663	1336.165513	-622.109065	848.906661	1257.947215	-647.826377	793.386502	1242.281116	-576.121715	713.928844	1180.677844	-81.29001700000001	914.779443	1185.09447	-91.209734	896.734859	1120.463194	-86.159792	906.870243	1206.082741	-587.422221	1021.948157	1268.867999	-467.572991	1036.011878	1203.983395	-486.272738	
4	0.14	945.491912	1029.878476	-441.425546	946.900981	1048.61136	-209.078466	781.882119	1071.803701	-374.98133	779.900333	1073.770741	-286.332085	916.7162510000001	790.169189	-164.004774	1008.989691	749.58881	-200.368678	972.956672	631.234612	-207.614112	830.827999	804.378755	-484.019453	900.763991	692.406152	-483.250104	847.249344	599.76633	-464.122473	1053.77613	398.898459	-278.897517	1014.083311	337.89147	-241.269613	1026.404679	217.773568	-303.273846	979.4064100000001	110.025266	-296.079945	996.102365	136.29882	-375.047366	749.161716	449.427435	-432.772094	646.660751	539.557823	-440.976999	559.73637	472.980396	-406.43263	917.765502	95.312923	-364.276027	1143.533457	69.011088	-345.418063	1071.041998	53.317141	-271.576593	426.958889	573.600475	-341.757723	379.2997	358.20162	-381.649734	360.803555	425.717526	-438.785088	931.702717	1556.286092	-464.417658	883.233169	1508.632811	-158.418295	972.445541	1460.948075	-283.747018	867.0617120000001	1550.840714	-315.497415	852.739652	1518.002651	-491.518507	789.3086949999999	1376.341416	-92.32648500000001	710.338314	1346.644172	-137.295466	689.5426210000001	1293.12015	-98.977062	674.419565	1227.331063	-72.332977	677.2655109999999	1216.201304	-162.916875	868.439226	1443.89125	-561.504546	803.796818	1369.521011	-567.655893	833.849001	1328.653952	-624.356314	839.4115410000001	1250.979828	-651.657585	785.883338	1235.168368	-578.764866	724.418302	1165.664312	-77.240143	925.108158	1172.66053	-91.22726	908.042378	1107.825186	-85.749521	897.31107	1195.115736	-594.693186	1018.461792	1249.262581	-477.001816	1029.799668	1184.851208	-498.532698	
5	0.15	942.221198	1019.999484	-440.637096	943.480879	1039.154788	-208.580234	776.595893	1063.848601	-374.029315	775.070868	1067.060493	-285.418782	911.93867	784.3527800000001	-163.67296	1003.721222	740.804334	-200.839474	967.805244	623.863392	-211.862252	836.081768	793.936117	-483.624105	912.7332249999999	685.791151	-485.800194	866.0095250000001	591.053261	-467.24973	1038.959064	392.299545	-288.826646	996.860575	333.243419	-250.972882	999.254939	213.008661	-313.371331	943.813715	111.210952	-304.669387	961.371157	133.909621	-384.424958	774.512761	444.638094	-435.895974	673.693995	535.990606	-445.781184	585.649682	470.985093	-410.983144	880.431787	95.21398000000001	-370.419592	1107.134368	66.99117200000001	-348.002564	1033.140819	55.533906	-275.369964	452.680305	573.845791	-347.606634	406.006772	358.32458	-387.718575	389.043475	425.6814	-445.501766	930.363251	1546.198228	-466.3295	886.027823	1499.512985	-157.772131	974.118508	1451.407662	-284.685874	868.014001	1542.126574	-315.247555	850.675001	1508.055155	-491.443566	796.482614	1362.485069	-89.883089	716.71378	1330.843997	-131.910263	698.43364	1277.039295	-92.845473	686.069261	1211.444515	-66.619399	685.787077	1199.697881	-156.810049	863.714417	1434.288896	-562.324821	798.132686	1361.075563	-567.9535090000001	825.62411	1320.683498	-626.1893229999999	829.180332	1244.033704	-655.025657	777.8094180000001	1227.528097	-580.9288780000001	736.348686	1150.903062	-73.020692	936.616052	1160.635458	-91.874855	920.2779420000001	1095.585687	-85.213596	887.115631	1184.773478	-601.712099	1013.599554	1230.732536	-486.705925	1022.789221	1167.009823	-511.34836	
6	0.16	937.903952	1010.841197	-440.527115	938.588243	1030.227866	-207.29006	770.3412520000001	1056.859208	-373.450954	769.48852	1061.585839	-284.916694	906.093777	779.562808	-164.485292	997.540424	735.327725	-201.186378	961.360337	619.0944469999999	-215.619954	841.372986	785.809064	-482.545964	924.938943	681.877746	-487.370746	886.005373	585.674277	-469.943517	1023.226718	387.680634	-295.871945	977.658322	331.492779	-257.33466	971.582306	210.914779	-318.667136	908.344281	113.074792	-309.659491	927.358299	134.060403	-389.825452	801.727455	441.515436	-437.930847	701.3771	532.6029140000001	-450.353553	612.989317	467.721505	-415.188979	843.287721	96.420632	-373.810617	1070.273608	65.787436	-350.31393	995.341867	56.238049	-278.152837	478.048366	570.993595	-354.345754	434.824029	354.455005	-392.912506	418.865281	420.985659	-451.930346	929.119063	1536.866021	-468.739581	889.338181	1491.534703	-156.918112	975.869545	1442.948392	-285.763415	869.265077	1535.194074	-315.011917	848.5192950000001	1499.4611	-491.398182	804.71179	1349.378997	-87.829863	723.831817	1315.882294	-126.182589	708.255588	1261.597732	-86.66278699999999	699.4825049999999	1196.235428	-60.755872	695.0432060000001	1183.932585	-150.3803	858.459079	1425.145115	-562.705878	791.630205	1352.732976	-567.624417	816.440397	1313.085877	-627.3101360000001	818.376358	1237.977759	-657.4880470000001	768.970553	1220.082934	-582.413086	749.977861	1137.075572	-68.750556	949.372918	1149.686743	-93.56689299999999	933.772416	1084.444816	-85.103222	876.452824	1175.904244	-608.2348050000001	1007.407209	1213.892483	-496.256646	1015.052053	1151.109482	-524.235805	
